<svg id="Layer_1" data-name="Layer 1" xmlns="http://www.w3.org/2000/svg" viewBox="0 0 206.88 89.18"><defs><style>.cls-1{fill:#516431;}</style></defs><g id="Layer_2" data-name="Layer 2"><g id="Layer_1-2" data-name="Layer 1-2"><path class="cls-1" d="M10.75,89.18a16.51,16.51,0,0,1-3.64-.41C2.4,88,0,83.58,0,75.71,0,68.19,2.25,58.87,6.69,48A109.49,109.49,0,0,1,25,18.13,82.15,82.15,0,0,1,39.85,4.61C44.44,1.55,48.29,0,51.31,0c4.26,0,6.42,2.65,6.42,7.89,0,4.53-1.89,11.17-5.62,19.75-1.86,4.2-3.7,8-5.48,11.21-2.46,4.5-3.39,5.12-4,5.12h-.18L42,43.71v-.32a1.07,1.07,0,0,1,.3-.63,75.1,75.1,0,0,0,7.06-13.13c4.12-9.56,6.21-16.78,6.21-21.47,0-3.88-1.3-5.68-4.08-5.68-3,0-7.13,2.08-12.25,6.17a96.44,96.44,0,0,0-15.7,16.54A110.48,110.48,0,0,0,10,48.12C5.64,58.33,3.41,67.48,3.41,75.31c0,6,1.4,9.72,4.17,11a9.17,9.17,0,0,0,3.9.75c2.93,0,6.58-1,10.86-3a74.89,74.89,0,0,0,14.75-9.64A144.91,144.91,0,0,0,52.34,59.94c.1-1.84,1.18-4.06,3.22-6.62,1.79-1.85,3.28-2.72,4.59-2.72,1,0,2.2.47,2.53,2.67l.06-.08.07-.08a1.73,1.73,0,0,1,1.06-.52c.39,0,.84.24.84,1.38a13.88,13.88,0,0,1-.2,1.93l-.06.89c0,2,1.06,2.92,3.34,2.92a12.83,12.83,0,0,0,4.29-.84,18.56,18.56,0,0,0,6.11-3.25,94.77,94.77,0,0,1,3.57-9.24,71.51,71.51,0,0,1,9.95-16c3.83-4.55,6.82-6.76,9.13-6.76a2.3,2.3,0,0,1,2.37,2.25v.19c0,2.15-1.31,5.38-4,9.87a97.61,97.61,0,0,1-8.85,12.43c-3.3,3.92-6.19,6.44-8.6,7.49A19.67,19.67,0,0,0,80.36,60,29.41,29.41,0,0,1,85,54.36C87.42,52.1,89.39,51,91,51a2.28,2.28,0,0,1,1.7.72,2.41,2.41,0,0,1,.67,1.71c0,1.62-1.08,3.35-3.21,5.15a19,19,0,0,1-7.47,3.79l-.23.08c.05.1.13.26.27.5l.08.16c1.5,3,3.38,4.57,5.6,4.57,3,0,6.71-2.56,11.15-7.63a14.81,14.81,0,0,1,1.35-3.92,15.06,15.06,0,0,1,4.41-5.23,8.49,8.49,0,0,1,4.56-1.7c2.09,0,3.24,1,3.24,2.7a4.28,4.28,0,0,1-.6,2,8,8,0,0,1-3.09,2.9A8.34,8.34,0,0,1,105.36,58a6.47,6.47,0,0,1-2-.35,8,8,0,0,0-1.1,4.16,5,5,0,0,0,.48,2.24,2.67,2.67,0,0,0,2.67,1.44c3.63,0,9.64-3.2,17.84-9.53a17.44,17.44,0,0,1,2-1.54c.49-2,1.09-4.11,1.79-6.24a115.57,115.57,0,0,1,11.46-24.3c4.55-7.14,9-11.65,13.16-13.41a5.11,5.11,0,0,1,1.5-.29c.92,0,2.46.4,2.46,3,0,2.87-1.26,7-3.74,12.29a93.64,93.64,0,0,1-9.46,15.73,53.19,53.19,0,0,1-12.24,12.36c-.89.71-1.65,2.48-2.18,5.12a43.23,43.23,0,0,0-.84,8.57,26.28,26.28,0,0,0,.6,6c.34,1.5.84,2.4,1.43,2.57,2.31,0,5.11-1.45,8.23-4.26a85.93,85.93,0,0,0,11.89-14,18,18,0,0,1,2.69-4.2c1.78-1.85,3.27-2.72,4.58-2.72,1,0,2.2.47,2.53,2.67l.06-.08.07-.08a1.75,1.75,0,0,1,1.07-.52c.38,0,.84.24.84,1.38a12.52,12.52,0,0,1-.21,1.93l-.06.89c0,2,1.07,2.92,3.35,2.92a13.08,13.08,0,0,0,4.28-.84,22.73,22.73,0,0,0,4.86-2.29c.3-1.59.6-3,.9-4.17A95,95,0,0,1,178,40.88a88.83,88.83,0,0,1,12.4-21.38c4.84-6,8.73-8.86,11.9-8.86a.68.68,0,0,1,.7.66.69.69,0,0,1-.33.6c-.86.56-1.72,1.21-3.11,2.31a15.54,15.54,0,0,0-2.62,2.44c-.34.37-.73.79-1.16,1.23a65.65,65.65,0,0,0-9.26,12.94,138.56,138.56,0,0,0-6,12.54c-1.31,3.13-2.3,5.74-2.92,7.76a30.83,30.83,0,0,0-.86,3.13c-.2.68-.39,1.52-.58,2.34-.08.38-.16.71-.23,1v.17a53.69,53.69,0,0,1,5.19-5.26c4.83-4.38,8.23-6.51,10.38-6.51.91,0,2.44.38,2.44,2.9a15,15,0,0,1-1.37,5.31l-.4,1.15c.57-.1,1.36-.22,2.39-.35,1.56-.2,3.27-.38,5.07-.53s3.44-.24,4.83-.24c2,.14,2.44.22,2.44.78s-.76.72-2,.77c-1.6.09-3.53.3-5.73.63s-4.17.67-5.86,1a20.87,20.87,0,0,0-2.46.57,22.55,22.55,0,0,1-2.65,4.59,49,49,0,0,1-9.61,9.52C175,74.65,172.17,76,170,76a3.39,3.39,0,0,1-1.71-.4,2.75,2.75,0,0,1-1.46-2.44c0-2,1.69-4.47,5.18-7.45,0-.07.06-.7.08-1,.07-1,.39-3.39.82-5.92a28.1,28.1,0,0,1-3.56,1.67,15.67,15.67,0,0,1-5.73,1.2c-3.29,0-5.14-1.57-5.4-4.54a15.08,15.08,0,0,1-2.64,3c-1.89,1.7-3.39,2.53-4.6,2.53l-.68-.08a2,2,0,0,1-1.17-.71C148,63.4,146.67,65,145.25,66.7a64.37,64.37,0,0,1-8.17,8.09c-2.89,2.36-5.57,3.56-8,3.56-3.78,0-5.69-3.67-5.69-10.89a53,53,0,0,1,1.21-10.81c-.83.77-2,1.75-3.55,3a59.63,59.63,0,0,1-8.51,5.53c-3.15,1.7-5.85,2.56-8.06,2.56a4.56,4.56,0,0,1-4.15-2.17,6.2,6.2,0,0,1-1-3c-4.49,4.82-8.42,7.27-11.68,7.27s-5.6-2.09-7.18-6.2a6.85,6.85,0,0,0-.61,1,16.94,16.94,0,0,0-1.29,3.81c-.43,1.93-.94,2.75-1.69,2.75-1,0-1.51-.93-1.51-2.77a39,39,0,0,1,1.75-9.51c.06-.22.12-.44.19-.66A26.56,26.56,0,0,1,73,60.39a15.72,15.72,0,0,1-5.74,1.2c-3.28,0-5.14-1.57-5.4-4.54a15,15,0,0,1-2.63,3c-1.89,1.7-3.4,2.53-4.6,2.53L54,62.51a2,2,0,0,1-1.09-.61A134.93,134.93,0,0,1,35.4,78.1C26,85.46,17.66,89.18,10.75,89.18ZM186.06,59.75A52.65,52.65,0,0,0,175,65.88c-3.13,2.3-4.95,4.43-5.42,6.33,0,.49.24.7.86.73a6.25,6.25,0,0,0,2.35-.69c4.68-2.17,9.15-6.25,13.3-12.13l.39-.54Zm-10.81,1.92s-.12.76-.19,1.6a58.65,58.65,0,0,1,10.46-5.65l.13-.06c.94-.37,1.67-.66,2.19-.9a2.19,2.19,0,0,0,1-1.12l.07-.14c1.51-2.93,2.27-5.09,2.27-6.42,0-.75-.21-.81-.3-.82-.33,0-1.43.32-4.73,2.85a88.74,88.74,0,0,0-7.24,6.18c-2.73,2.6-3.51,3.87-3.67,4.48Zm-115-8.39a3.37,3.37,0,0,0-2.09,1.33,15.51,15.51,0,0,0-2.51,3.89A5.25,5.25,0,0,0,55,60.42a.43.43,0,0,0,0,.16,4.92,4.92,0,0,0,2.87-1.69,16.22,16.22,0,0,0,2.31-2.72,3.8,3.8,0,0,0,.56-2c-.07-.38-.2-.89-.49-.89Zm96.38,0a3.44,3.44,0,0,0-2.09,1.33A15.44,15.44,0,0,0,152,58.5a5.09,5.09,0,0,0-.69,1.92.22.22,0,0,0,0,.16,4.89,4.89,0,0,0,2.86-1.69,16.28,16.28,0,0,0,2.32-2.72,4,4,0,0,0,.56-2c-.05-.38-.16-.89-.45-.89Zm-65.87-.47c-.41,0-1.25.27-3,1.56a20.35,20.35,0,0,0-4.12,4.22l-.57.76c.33-.13.76-.32,1.34-.59,3.21-1.33,5.23-2.81,6-4.42A3.6,3.6,0,0,0,90.89,53a.33.33,0,0,0,0-.14h0a.3.3,0,0,0-.16,0Zm19.4-1.33a4.3,4.3,0,0,0-2.13.92,15.79,15.79,0,0,0-2.61,2.15c-1,1.05-1,1.44-1,1.48a3.15,3.15,0,0,0,1.22.15,5.8,5.8,0,0,0,4.54-2,3.37,3.37,0,0,0,1.07-2.06c-.08-.12-.08-.54-1.12-.64Zm-9.34-25.26c-.44,0-1.77.6-5.22,4.54a69,69,0,0,0-10,15.58c-1.62,3.45-2.69,5.9-3.21,7.29.38-.28.9-.7,1.62-1.31A70.77,70.77,0,0,0,95.43,38.56c3.6-5.5,5.43-9.46,5.43-11.79a1.46,1.46,0,0,0-.07-.55ZM153,12.3c-.75,0-2.73,1-7.53,7.65a106.15,106.15,0,0,0-12.75,23.72c-1.75,4.35-2.54,6.56-2.88,7.69A16,16,0,0,0,132,49.68,81.57,81.57,0,0,0,146.76,31c4.5-7.53,6.78-13.32,6.78-17.2C153.54,13.25,153.47,12.3,153,12.3Z"/><path class="cls-1" d="M204.42,54.54h0c-1.38,0-3,.08-4.8.23s-3.51.33-5.07.53c-1.35.18-2.29.32-2.85.45l.57-1.63a15,15,0,0,0,1.34-5.21c0-2.16-1.17-2.62-2.15-2.62-2.07,0-5.41,2.11-10.19,6.44a50.34,50.34,0,0,0-5.49,5.63l-.48.65c.07-.32.18-.78.36-1.47l.22-1c.19-.84.39-1.71.58-2.35h0a29,29,0,0,1,.87-3.16c.63-2,1.61-4.66,2.93-7.79a139.28,139.28,0,0,1,6-12.58,65.59,65.59,0,0,1,9.31-13l1.16-1.23A15.87,15.87,0,0,1,199.35,14h0a37.34,37.34,0,0,1,3.13-2.33.4.4,0,0,0,.17-.45.41.41,0,0,0-.39-.29c-3.08,0-6.9,2.87-11.68,8.76A88.33,88.33,0,0,0,178.2,41a92.76,92.76,0,0,0-3.7,11.5c-.34,1.3-.65,2.79-.93,4.27a22.53,22.53,0,0,1-5,2.39,13.11,13.11,0,0,1-4.38.85c-2.44,0-3.63-1.06-3.63-3.22l.06-.92a11.89,11.89,0,0,0,.21-1.88c0-.27,0-1.1-.56-1.1a1.48,1.48,0,0,0-.88.46h0a2.38,2.38,0,0,1-.47.53.78.78,0,0,0,0-.29c-.19-1.81-1-2.73-2.29-2.73s-2.65.85-4.35,2.6h0a17.64,17.64,0,0,0-2.62,4.24,86.6,86.6,0,0,1-12,14c-3.17,2.86-6,4.31-8.49,4.32-.7-.21-1.25-1.14-1.63-2.78a26.89,26.89,0,0,1-.6-6.07,43.83,43.83,0,0,1,.84-8.63c.56-2.74,1.33-4.53,2.3-5.29A53,53,0,0,0,142.2,41a94.84,94.84,0,0,0,9.42-15.69c2.46-5.25,3.71-9.34,3.71-12.17,0-2.27-1.18-2.74-2.17-2.74a4.26,4.26,0,0,0-1.37.25h0c-4.13,1.74-8.51,6.21-13,13.3A115.47,115.47,0,0,0,127.25,48.2q-1.09,3.3-1.84,6.41h0c-.11,0-.15,0-2,1.51-8.25,6.37-14.31,9.6-18,9.6a3,3,0,0,1-2.92-1.61,5.2,5.2,0,0,1-.51-2.36,8.13,8.13,0,0,1,1.26-4.5,6.19,6.19,0,0,0,2.17.41,8,8,0,0,0,3.93-1.13,7.65,7.65,0,0,0,3-2.78,4,4,0,0,0,.56-1.84c0-2-1.6-2.42-3-2.42a8.16,8.16,0,0,0-4.39,1.65,14.56,14.56,0,0,0-4.32,5.13,13.89,13.89,0,0,0-1.34,3.92C95.31,65.35,91.47,68,88.41,68c-2.34,0-4.3-1.59-5.85-4.73l-.07-.13h0a2.52,2.52,0,0,1-.36-.78,1.43,1.43,0,0,1,.49-.21A18.69,18.69,0,0,0,90,58.36c2.06-1.74,3.11-3.4,3.11-4.93a2.12,2.12,0,0,0-.6-1.51A2,2,0,0,0,91,51.28c-1.54,0-3.44,1.07-5.81,3.28a31.59,31.59,0,0,0-5.64,7.32c1.4-5.22,1.91-6.11,2.07-6.23h0c2.37-1,5.23-3.53,8.49-7.41A95.34,95.34,0,0,0,99,35.83c2.66-4.44,4-7.62,4-9.72a2.15,2.15,0,0,0-.46-1.42,2.09,2.09,0,0,0-1.63-.74c-2.22,0-5.14,2.18-8.92,6.67A71.56,71.56,0,0,0,82,46.49a90.84,90.84,0,0,0-3.58,9.29,18.65,18.65,0,0,1-6.27,3.36A13.2,13.2,0,0,1,67.8,60c-2.44,0-3.63-1.06-3.63-3.22l.06-.92a13.17,13.17,0,0,0,.2-1.88c0-.27,0-1.1-.56-1.1a1.48,1.48,0,0,0-.88.46h0a2.38,2.38,0,0,1-.47.53.93.93,0,0,1-.05-.29c-.2-1.81-1-2.73-2.29-2.73s-2.65.85-4.35,2.6h0c-2,2.57-3.1,4.77-3.17,6.56A143.38,143.38,0,0,1,37.27,74.7a75.05,75.05,0,0,1-14.81,9.68c-4.32,2-8,3-11,3a9.64,9.64,0,0,1-4-.77c-2.87-1.38-4.33-5.18-4.33-11.3,0-7.87,2.23-17.05,6.63-27.3a111.08,111.08,0,0,1,13.5-23A96.92,96.92,0,0,1,39,8.43C44.18,4.3,48.36,2.2,51.44,2.2s4.36,2,4.36,6c0,4.73-2.1,12-6.23,21.58A75.11,75.11,0,0,1,42.48,43c-.2.27-.24.37-.24.46v.14l.3.16h.06c.49,0,1.37-.57,3.79-5,1.77-3.24,3.6-7,5.46-11.19,3.71-8.55,5.6-15.15,5.6-19.64,0-5-2.07-7.61-6.14-7.61-3,0-6.76,1.54-11.3,4.56A82.32,82.32,0,0,0,25.2,18.31,109.51,109.51,0,0,0,7,48.13C2.53,58.94.28,68.22.28,75.71c0,7.71,2.33,12,6.89,12.78a15.92,15.92,0,0,0,3.58.41c6.84,0,15.08-3.71,24.47-11A134.81,134.81,0,0,0,52.88,61.45a1.67,1.67,0,0,0,1.1.78l.63.07h0c1.13,0,2.57-.8,4.41-2.45a13,13,0,0,0,3.06-3.8v.24c0,3.33,1.73,5,5.14,5a15.59,15.59,0,0,0,5.64-1.18,25.41,25.41,0,0,0,5-2.57c-.14.47-.28.93-.41,1.4a38.34,38.34,0,0,0-1.73,9.43c0,1.65.41,2.49,1.22,2.49.59,0,1-.78,1.42-2.54a17,17,0,0,1,1.31-3.87c.59-1.15.88-1.38,1-1.42h0c1.53,4.25,3.91,6.4,7.06,6.4S95,66.85,99.67,61.74v.09a6.09,6.09,0,0,0,1,3.44,4.31,4.31,0,0,0,3.91,2c2.16,0,4.82-.85,7.92-2.52a60.86,60.86,0,0,0,8.5-5.42,41.21,41.21,0,0,0,4.2-3.61,53.45,53.45,0,0,0-1.41,11.68c0,7,1.82,10.6,5.41,10.6,2.32,0,4.93-1.17,7.77-3.49a63.17,63.17,0,0,0,8.13-8.06c1.53-1.79,2.9-3.52,4.13-5.16a1.58,1.58,0,0,0,1.18.94l.62.07h0c1.14,0,2.58-.8,4.41-2.45a13,13,0,0,0,3.07-3.8v.24c0,3.33,1.73,5,5.15,5a15.59,15.59,0,0,0,5.63-1.18,26.2,26.2,0,0,0,4-2c-.5,2.87-.84,5.51-.92,6.49a7.77,7.77,0,0,1-.06.78,2,2,0,0,0,0,.35c-3.48,3-5.18,5.36-5.18,7.32a2.46,2.46,0,0,0,1.32,2.2,3.15,3.15,0,0,0,1.57.36c2.08,0,4.87-1.28,8.31-3.8a48.68,48.68,0,0,0,9.56-9.46,22.49,22.49,0,0,0,2.66-4.64,14.68,14.68,0,0,1,2.62-.62c1.69-.33,3.67-.67,5.87-1s4.14-.54,5.76-.63,1.75-.2,1.75-.49S206.45,54.68,204.42,54.54Zm-18.79,3.34a57.54,57.54,0,0,0-10.9,6c.05-1,.22-2.13.24-2.25.26-.93,1.53-2.48,3.76-4.6a89.27,89.27,0,0,1,7.26-6.2c3.12-2.4,4.39-2.91,4.91-2.91.17,0,.58.07.58,1.1,0,1.37-.78,3.58-2.3,6.54l-.07.14A2.49,2.49,0,0,1,188,56.92c-.52.24-1.25.54-2.18.89Zm1.55,1.1a14.44,14.44,0,0,1-.91,1.3h0c-4.17,5.93-8.68,10-13.41,12.23a6.55,6.55,0,0,1-2.49.71,1,1,0,0,1-1.11-1.08c.48-2,2.34-4.15,5.52-6.49A52.79,52.79,0,0,1,186,59.49a7.82,7.82,0,0,1,1.18-.49Zm-29.81-4.8a4.1,4.1,0,0,1-.6,2.13,16.08,16.08,0,0,1-2.36,2.78,5,5,0,0,1-3,1.76c-.23,0-.37-.07-.37-.44a5.7,5.7,0,0,1,.71-2,15.54,15.54,0,0,1,2.55-4A3.57,3.57,0,0,1,156.6,53c.15,0,.6,0,.77,1.18Zm-28-2.2a80.51,80.51,0,0,1,3.08-8.41,106.38,106.38,0,0,1,12.79-23.79c2.55-3.54,6-7.76,7.76-7.76.55,0,.82.6.82,1.8,0,3.93-2.29,9.77-6.81,17.35a82.18,82.18,0,0,1-14.84,18.72,15.12,15.12,0,0,1-2.8,2.11Zm-25.31,4c0-.19.14-.66,1.13-1.67a15.56,15.56,0,0,1,2.66-2.2,4.64,4.64,0,0,1,2.29-1c1.17.11,1.31.6,1.31,1a3.58,3.58,0,0,1-1.14,2.24,6,6,0,0,1-4.75,2.06C104.6,56.47,104.06,56.31,104.06,56ZM82.39,59.89a9.76,9.76,0,0,1,1-1.47,20.64,20.64,0,0,1,4.18-4.27,6.7,6.7,0,0,1,3.15-1.62c.32,0,.44.12.44.44a3.94,3.94,0,0,1-.51,1.49c-.81,1.67-2.87,3.2-6.14,4.55A14.57,14.57,0,0,1,82.39,59.89Zm-.59-5.55a77.52,77.52,0,0,1,3.49-8.12A69,69,0,0,1,95.36,30.58c3.35-3.84,4.83-4.65,5.48-4.65.25,0,.3.46.3.84,0,2.38-1.84,6.4-5.48,12A70.92,70.92,0,0,1,84.14,52.53,19.48,19.48,0,0,1,81.8,54.34Zm-26.43,4a15.54,15.54,0,0,1,2.55-4A3.53,3.53,0,0,1,60.22,53c.14,0,.59,0,.77,1.18a4.33,4.33,0,0,1-.6,2.13A16.25,16.25,0,0,1,58,59.09a5,5,0,0,1-3,1.76c-.22,0-.36-.07-.36-.44a5.62,5.62,0,0,1,.73-2Z"/></g></g></svg>